<?xml version="1.0" standalone="no"?>
<!DOCTYPE svg PUBLIC "-//W3C//DTD SVG 20010904//EN"
 "http://www.w3.org/TR/2001/REC-SVG-20010904/DTD/svg10.dtd">
<svg version="1.0" xmlns="http://www.w3.org/2000/svg"
 width="150.000000pt" height="50.000000pt" viewBox="0 0 150.000000 50.000000"
 preserveAspectRatio="xMidYMid meet">

<g transform="translate(0.000000,50.000000) scale(0.100000,-0.100000)"
fill="#000000" stroke="none">
<path d="M200 330 c0 -5 5 -10 10 -10 6 0 10 5 10 10 0 6 -4 10 -10 10 -5 0
-10 -4 -10 -10z"/>
<path d="M250 330 c0 -6 27 -10 60 -10 33 0 60 4 60 10 0 6 -27 10 -60 10 -33
0 -60 -4 -60 -10z"/>
<path d="M190 280 c0 -5 18 -10 40 -10 22 0 40 5 40 10 0 6 -18 10 -40 10 -22
0 -40 -4 -40 -10z"/>
<path d="M310 280 c0 -5 14 -10 30 -10 17 0 30 5 30 10 0 6 -13 10 -30 10 -16
0 -30 -4 -30 -10z"/>
<path d="M462 253 c2 -31 7 -39 26 -41 18 -3 22 1 21 20 -1 17 -3 18 -6 6 -6
-24 -23 -23 -23 1 0 11 8 22 18 24 16 4 16 5 0 6 -10 0 -18 6 -18 11 0 6 -5
10 -11 10 -6 0 -9 -16 -7 -37z"/>
<path d="M520 250 c0 -22 5 -40 10 -40 6 0 10 11 10 25 0 14 5 25 10 25 6 0
10 -11 10 -25 0 -14 5 -25 10 -25 6 0 10 12 10 26 0 17 -6 28 -20 31 -11 3
-20 9 -20 14 0 5 -4 9 -10 9 -5 0 -10 -18 -10 -40z"/>
<path d="M1041 252 c-1 -39 1 -43 21 -40 14 2 24 11 26 23 3 18 2 19 -8 2 -6
-9 -15 -15 -21 -12 -16 10 -10 25 14 35 22 9 22 9 0 9 -12 1 -24 7 -26 14 -3
6 -6 -7 -6 -31z"/>
<path d="M1220 277 c0 -7 -12 -13 -27 -12 -23 0 -28 -4 -28 -25 0 -22 5 -25
37 -26 29 -2 37 2 40 17 4 27 22 25 30 -3 5 -21 6 -21 7 5 1 21 -5 30 -19 34
-11 3 -20 9 -20 14 0 5 -4 9 -10 9 -5 0 -10 -6 -10 -13z m-10 -27 c13 -9 13
-11 0 -20 -22 -15 -30 -12 -30 10 0 22 8 25 30 10z"/>
<path d="M597 263 c-4 -3 -7 -17 -7 -30 0 -18 5 -23 25 -23 14 0 25 4 25 9 0
5 -9 7 -19 4 -16 -4 -19 -1 -14 17 4 16 8 18 14 9 4 -8 11 -10 14 -7 4 4 4 11
0 17 -7 12 -28 14 -38 4z"/>
<path d="M680 241 c0 -17 5 -31 10 -31 6 0 10 11 10 25 0 14 5 25 10 25 6 0
10 -11 10 -25 0 -14 5 -25 11 -25 6 0 9 12 7 28 -2 21 -9 28 -30 30 -25 3 -28
0 -28 -27z"/>
<path d="M757 264 c-4 -4 -7 -18 -7 -31 0 -21 4 -24 28 -21 21 2 27 8 27 28 0
18 -6 26 -20 28 -12 2 -24 0 -28 -4z m33 -24 c0 -11 -4 -20 -9 -20 -14 0 -23
18 -16 30 10 17 25 11 25 -10z"/>
<path d="M824 250 c3 -14 6 -28 6 -32 0 -20 29 -5 34 18 8 30 0 46 -10 20 -6
-15 -7 -15 -21 1 -13 17 -14 16 -9 -7z"/>
<path d="M882 243 c2 -22 9 -29 31 -31 24 -3 27 0 27 27 0 17 -4 31 -10 31 -5
0 -10 -11 -10 -25 0 -14 -4 -25 -10 -25 -5 0 -10 11 -10 25 0 14 -5 25 -11 25
-6 0 -9 -12 -7 -27z"/>
<path d="M950 259 c0 -7 8 -18 18 -26 16 -14 16 -14 0 -9 -10 3 -18 1 -18 -4
0 -6 11 -10 25 -10 31 0 33 23 3 39 l-23 11 24 -6 c16 -4 21 -3 17 5 -9 14
-46 14 -46 0z"/>
<path d="M1107 263 c-4 -3 -7 -17 -7 -30 0 -18 5 -23 25 -23 14 0 25 4 25 9 0
5 -9 7 -19 4 -16 -4 -19 -1 -14 17 4 16 8 18 14 9 4 -8 11 -10 14 -7 4 4 4 11
0 17 -7 12 -28 14 -38 4z"/>
<path d="M190 220 c0 -5 14 -10 30 -10 17 0 30 5 30 10 0 6 -13 10 -30 10 -16
0 -30 -4 -30 -10z"/>
<path d="M290 220 c0 -5 18 -10 40 -10 22 0 40 5 40 10 0 6 -18 10 -40 10 -22
0 -40 -4 -40 -10z"/>
<path d="M192 168 c3 -8 27 -14 61 -16 46 -2 57 0 57 13 0 12 -13 15 -61 15
-44 0 -60 -3 -57 -12z"/>
<path d="M340 170 c0 -5 7 -10 15 -10 8 0 15 5 15 10 0 6 -7 10 -15 10 -8 0
-15 -4 -15 -10z"/>
</g>
</svg>
